<svg xmlns="http://www.w3.org/2000/svg" xmlns:xlink="http://www.w3.org/1999/xlink" width="1080" zoomAndPan="magnify" viewBox="0 0 810 809.999993" height="1080" preserveAspectRatio="xMidYMid meet" version="1.0"><defs><g/><clipPath id="ce361ad811"><path d="M 31.925781 31.925781 L 778.175781 31.925781 L 778.175781 778.175781 L 31.925781 778.175781 Z M 31.925781 31.925781 " clip-rule="nonzero"/></clipPath><clipPath id="d5e71153a9"><rect x="0" width="616" y="0" height="347"/></clipPath></defs><g clip-path="url(#ce361ad811)"><path fill="#000000" d="M 405.050781 31.925781 C 198.898438 31.925781 31.925781 198.898438 31.925781 405.050781 C 31.925781 611.199219 198.898438 778.175781 405.050781 778.175781 C 611.199219 778.175781 778.175781 611.199219 778.175781 405.050781 C 778.175781 198.898438 611.199219 31.925781 405.050781 31.925781 Z M 405.050781 31.925781 " fill-opacity="1" fill-rule="nonzero"/></g><g transform="matrix(1, 0, 0, 1, 97, 231)"><g clip-path="url(#d5e71153a9)"><g fill="#0e9488" fill-opacity="1"><g transform="translate(1.311354, 278.486054)"><g><path d="M 123.421875 0 L 25.921875 0 L 25.921875 -232.421875 L 293 -232.421875 L 293 -174.921875 L 123.421875 -174.921875 L 123.421875 -138.484375 L 266.75 -138.484375 L 266.75 -93.78125 L 123.421875 -93.78125 Z M 123.421875 0 "/></g></g><g transform="translate(307.2609, 278.486054)"><g><path d="M 153.546875 5.015625 C 122.117188 5.015625 96.796875 1.644531 77.578125 -5.09375 C 58.359375 -11.84375 43.726562 -21.128906 33.6875 -32.953125 C 23.644531 -44.773438 16.894531 -58.410156 13.4375 -73.859375 L 116.9375 -73.859375 C 124.601562 -62.835938 136.804688 -57.328125 153.546875 -57.328125 C 170.273438 -57.328125 182.472656 -62.835938 190.140625 -73.859375 C 190.796875 -74.929688 191.125 -75.898438 191.125 -76.765625 C 191.125 -79.679688 187.257812 -81.867188 179.53125 -83.328125 C 171.8125 -84.785156 160.285156 -85.894531 144.953125 -86.65625 C 125.628906 -87.519531 105.332031 -89.570312 84.0625 -92.8125 C 36.65625 -100.144531 12.953125 -119.203125 12.953125 -149.984375 C 12.953125 -152.566406 13.113281 -155.316406 13.4375 -158.234375 C 16.894531 -173.679688 23.644531 -187.316406 33.6875 -199.140625 C 43.726562 -210.960938 58.359375 -220.242188 77.578125 -226.984375 C 96.796875 -233.734375 122.117188 -237.109375 153.546875 -237.109375 C 184.960938 -237.109375 210.28125 -233.734375 229.5 -226.984375 C 248.71875 -220.242188 263.347656 -210.960938 273.390625 -199.140625 C 283.429688 -187.316406 290.179688 -173.679688 293.640625 -158.234375 L 190.140625 -158.234375 C 182.472656 -169.253906 170.273438 -174.765625 153.546875 -174.765625 C 136.804688 -174.765625 124.601562 -169.253906 116.9375 -158.234375 C 116.394531 -157.367188 116.125 -156.5625 116.125 -155.8125 C 116.125 -153.21875 119.820312 -151.300781 127.21875 -150.0625 C 134.613281 -148.820312 145.519531 -147.769531 159.9375 -146.90625 C 174.351562 -146.039062 189.710938 -144.632812 206.015625 -142.6875 C 222.316406 -140.75 237.566406 -137.375 251.765625 -132.5625 C 265.972656 -127.757812 277.070312 -120.660156 285.0625 -111.265625 C 291.320312 -104.035156 294.453125 -94.859375 294.453125 -83.734375 C 294.453125 -80.597656 294.179688 -77.304688 293.640625 -73.859375 C 290.179688 -58.410156 283.429688 -44.773438 273.390625 -32.953125 C 263.347656 -21.128906 248.71875 -11.84375 229.5 -5.09375 C 210.28125 1.644531 184.960938 5.015625 153.546875 5.015625 Z M 153.546875 5.015625 "/></g></g></g></g></g></svg>